<?xml version="1.0" encoding="iso-8859-1"?>
<!-- Generator: Adobe Illustrator 19.0.0, SVG Export Plug-In . SVG Version: 6.00 Build 0)  -->
<svg version="1.1" id="Layer_1" xmlns="http://www.w3.org/2000/svg" xmlns:xlink="http://www.w3.org/1999/xlink" x="0px" y="0px"
	 viewBox="0 0 512 512" style="enable-background:new 0 0 512 512;" xml:space="preserve">
<path style="fill:#DB2B42;" d="M256,0C114.616,0,0,114.616,0,256s114.616,256,256,256s256-114.616,256-256S397.384,0,256,0z
	 M286.088,396.44h-62.656V194.864h62.656V396.44z M254.344,170.128c-19.792,0-32.976-14.016-32.56-31.336
	c-0.416-18.136,12.776-31.736,32.976-31.736c20.192,0,32.976,13.6,33.392,31.736C288.152,156.112,274.952,170.128,254.344,170.128z"
	/>
<g>
	<rect x="223.432" y="194.864" style="fill:#8AD5DD;" width="62.656" height="201.6"/>
	<path style="fill:#8AD5DD;" d="M254.76,107.056c-20.2,0-33.392,13.6-32.976,31.736c-0.416,17.32,12.776,31.336,32.56,31.336
		c20.608,0,33.808-14.016,33.808-31.336C287.736,120.664,274.952,107.056,254.76,107.056z"/>
</g>
<g>
</g>
<g>
</g>
<g>
</g>
<g>
</g>
<g>
</g>
<g>
</g>
<g>
</g>
<g>
</g>
<g>
</g>
<g>
</g>
<g>
</g>
<g>
</g>
<g>
</g>
<g>
</g>
<g>
</g>
</svg>
